<svg xmlns="http://www.w3.org/2000/svg" width="512" height="512" viewBox="0 0 512 512">
  <defs>
    <linearGradient id="bg" x1="0" y1="0" x2="1" y2="1">
      <stop offset="0%" stop-color="#4f46e5"/>
      <stop offset="100%" stop-color="#00f2fe"/>
    </linearGradient>
  </defs>
  <rect width="512" height="512" rx="96" fill="#080914"/>
  <circle cx="256" cy="256" r="165" fill="url(#bg)" opacity="0.9"/>
  <g transform="translate(256,256)" fill="none" stroke="#fff" stroke-width="12" stroke-linecap="round" stroke-linejoin="round">
    <path d="M0-85L-20-25l-55-15L-20-25l-20 55L0-25l55-15L0-25l20 55L0-85z"/>
    <path d="M0-25v-60M0 25v60M-25 0h-60M25 0h60M-18-18l-42-42M18-18l42-42M18 18l42 42M-18 18l-42 42" stroke-width="7" opacity="0.6"/>
  </g>
</svg>
